# Created by Metasequoia

v 0.000000 122.716148 -48.792591
v 0.000000 0.000000 300.000000
v 42.956085 0.000000 -42.207638
v 0.000000 0.000000 -198.290421
v -42.956085 0.000000 -42.207638
v 0.000000 -8.684281 -48.792591
v 0.000000 8.560041 -40.729996
v 11.440130 0.000000 -42.257236
v -11.440130 0.000000 -42.257236
v 0.000000 -8.560041 -40.729996
v 0.000000 7.867458 -57.210648
v 11.984455 0.000000 -56.635014
v -11.984455 -0.000000 -56.635014
v 0.000000 -7.867458 -57.210648
v 0.000000 8.638979 0.000000
v 10.842014 0.000000 -7.743145
v 36.622742 0.000000 -4.805594
v -36.622742 0.000000 4.534745
v -12.842036 0.000000 -8.490593
v 0.000000 -8.638979 0.000000
v 22.765596 1.686738 -163.012512
v 37.034302 0.000000 -197.910492
v 25.867168 0.000000 -159.578583
v 19.673677 0.000000 -166.438538
v 22.765596 -1.686738 -163.012512
v 3.946310 -5.911863 -66.274361
v -7.554011 0.000000 -63.970200
v -4.958579 0.000000 -54.164268
v 3.946310 5.911860 -66.274368
v -10.842014 0.000000 7.743146
v 12.842037 0.000000 8.490593
v -22.765594 1.686738 163.012512
v -37.034286 0.000000 197.910492
v -25.867161 0.000000 159.578583
v -19.673666 0.000000 166.438538
v -22.765594 -1.686738 163.012512
v -3.946307 -5.911863 66.274361
v 7.554017 0.000000 63.970200
v 4.958582 0.000000 54.164268
v -3.946307 5.911860 66.274368
v 16.355715 0.000000 -107.754448
v 12.346252 0.000000 -63.007771
v 9.725955 3.930533 -112.965401
v 9.725955 -3.930533 -112.965424
v 20.927074 0.000000 -137.923218
v 16.234797 2.634228 -142.325012
v 16.234797 -2.634229 -142.325012
v -12.346252 0.000000 63.007771
v -16.355713 0.000000 107.754448
v -9.725949 -3.930533 112.965424
v -20.927065 0.000000 137.923218
v -16.234789 -2.634229 142.325012
v -16.234789 2.634228 142.325012
v -9.725949 3.930533 112.965401
v -3.057502 0.000000 118.180847
v -11.508508 0.000000 146.743622
v 3.057506 0.000000 -118.180847
v 11.508515 0.000000 -146.743622
# 58 vertices

vt 0.22332 0.65700
vt 0.40500 0.81397
vt 0.28387 0.60467
vt 0.26875 0.71979
vt 0.04168 0.81399
vt 0.17792 0.71980
vt 0.16277 0.60467
vt 0.22325 0.02906
vt 0.22332 0.59244
vt 0.22333 0.72440
vt 0.22336 0.97097
vt 0.74801 0.50417
vt 0.79549 0.54375
vt 0.90839 0.52873
vt 0.58763 0.48101
vt 0.69178 0.54757
vt 0.82345 0.84538
vt 0.86018 0.91842
vt 0.83372 0.83819
vt 0.81321 0.85255
vt 0.76455 0.64289
vt 0.71640 0.63807
vt 0.72726 0.61755
vt 0.70053 0.46460
vt 0.80424 0.46077
vt 0.67257 0.16297
vt 0.63584 0.08993
vt 0.66230 0.17016
vt 0.68281 0.15580
vt 0.73147 0.36546
vt 0.77962 0.37028
vt 0.76876 0.39080
vt 0.81190 0.72971
vt 0.79972 0.63605
vt 0.78601 0.74062
vt 0.82274 0.79286
vt 0.80599 0.80208
vt 0.69630 0.37229
vt 0.68412 0.27863
vt 0.71001 0.26773
vt 0.67328 0.21549
vt 0.69003 0.20627
vt 0.73604 0.25681
vt 0.70690 0.19702
vt 0.75998 0.75154
vt 0.78912 0.81133
# 46 texture vertices

vn 0.00000 0.05784 0.99833
vn -0.00157 -0.05799 0.99832
vn 0.03262 -0.27981 0.95950
vn 0.00000 0.09851 -0.99514
vn 0.30900 0.09068 -0.94673
vn 0.42020 0.09868 -0.90205
vn -0.42020 0.09868 -0.90205
vn -0.30900 0.09068 -0.94673
vn -0.03262 -0.27981 0.95950
vn 0.00157 -0.05799 0.99832
vn 0.00000 -0.60024 0.79982
vn 0.24528 -0.81399 -0.52655
vn 0.41223 -0.85806 -0.30626
vn 0.00000 -0.98117 -0.19317
vn -0.41223 -0.85806 -0.30626
vn -0.24528 -0.81399 -0.52655
vn 0.60070 0.79922 0.02008
vn 0.60070 0.79922 0.02008
vn 0.60070 0.79922 0.02008
vn -0.60070 0.79922 0.02008
vn -0.60070 0.79922 0.02008
vn -0.60070 0.79922 0.02008
vn 0.60043 -0.79951 0.01643
vn 0.60070 -0.79922 0.02008
vn 0.60054 -0.79939 0.01798
vn -0.60054 -0.79939 0.01798
vn -0.60070 -0.79922 0.02008
vn -0.60043 -0.79951 0.01643
vn 0.00000 0.07045 0.99752
vn 0.54975 0.83403 -0.04651
vn 0.54975 0.83403 -0.04651
vn 0.54975 0.83403 -0.04651
vn -0.54975 0.83403 -0.04651
vn -0.54975 0.83403 -0.04651
vn -0.54975 0.83403 -0.04651
vn 0.54975 -0.83403 -0.04651
vn 0.54981 -0.83286 -0.06362
vn -0.54981 -0.83286 -0.06362
vn -0.54975 -0.83403 -0.04651
vn 0.00000 0.07310 -0.99732
vn -0.03105 0.98628 -0.16211
vn 0.38029 0.83638 -0.39477
vn 0.07876 0.71836 -0.69120
vn -0.25736 0.84438 -0.46988
vn -0.40706 0.86895 -0.28148
vn 0.07876 -0.71836 -0.69120
vn 0.38029 -0.83638 -0.39477
vn -0.20005 -0.96064 -0.19274
vn -0.40706 -0.86895 -0.28148
vn -0.25736 -0.84438 -0.46988
vn 0.02025 0.99920 -0.03441
vn 0.01707 0.99900 -0.04131
vn 0.39552 0.91360 0.09435
vn -0.32770 0.93022 -0.16525
vn 0.39552 -0.91360 0.09435
vn 0.01707 -0.99900 -0.04131
vn 0.02025 -0.99920 -0.03441
vn -0.32770 -0.93022 -0.16525
vn -0.45052 -0.89156 -0.04642
vn -0.45344 -0.89099 0.02290
vn -0.59993 -0.79840 -0.05138
vn -0.59993 0.79840 -0.05138
vn -0.45344 0.89099 0.02290
vn -0.17337 0.98431 -0.03290
vn 0.11011 0.80953 0.57666
vn -0.38375 0.83684 0.39043
vn -0.08541 0.72230 0.68628
vn 0.26060 0.84548 0.46610
vn 0.40876 0.86897 0.27895
vn -0.08541 -0.72230 0.68628
vn -0.38375 -0.83684 0.39043
vn 0.36458 -0.86214 0.35185
vn 0.40876 -0.86897 0.27895
vn 0.26060 -0.84548 0.46610
vn -0.02025 0.99920 0.03441
vn -0.01707 0.99900 0.04130
vn -0.39552 0.91360 -0.09435
vn 0.32770 0.93022 0.16525
vn -0.39552 -0.91360 -0.09435
vn -0.01707 -0.99900 0.04130
vn -0.02025 -0.99920 0.03441
vn 0.32770 -0.93022 0.16525
vn 0.45052 -0.89156 0.04642
vn 0.45344 -0.89099 -0.02290
vn 0.59993 -0.79840 0.05138
vn 0.59993 0.79840 0.05138
vn 0.45344 0.89099 -0.02290
vn -0.03181 0.99944 0.01050
vn 0.49094 0.87016 0.04251
vn 0.56743 0.82287 0.03011
vn 0.56165 0.82584 0.05033
vn 0.00615 0.99947 -0.03181
vn 0.57058 -0.82056 0.03350
vn 0.56743 -0.82287 0.03011
vn 0.49094 -0.87016 0.04251
vn 0.00615 -0.99947 -0.03181
vn 0.43844 0.89582 0.07263
vn 0.01404 0.99936 -0.03281
vn 0.43844 -0.89582 0.07263
vn 0.01404 -0.99936 -0.03281
vn -0.57058 -0.82056 -0.03350
vn -0.56743 -0.82287 -0.03011
vn -0.49094 -0.87016 -0.04251
vn -0.00615 -0.99947 0.03181
vn -0.43844 -0.89582 -0.07263
vn -0.01404 -0.99936 0.03281
vn -0.43844 0.89582 -0.07263
vn -0.01404 0.99936 0.03281
vn -0.00615 0.99947 0.03181
vn -0.49094 0.87016 -0.04251
vn -0.56743 0.82287 -0.03011
vn 0.43816 0.89162 0.11414
vn 0.37984 0.91394 0.14299
vn -0.43816 0.89162 -0.11414
vn -0.37984 0.91394 -0.14299
vn 0.43816 -0.89162 0.11414
vn 0.37984 -0.91394 0.14299
vn -0.43816 -0.89162 -0.11414
vn -0.37984 -0.91394 -0.14299
# 119 normal vertices

g ss
s 1
f 8/3/3 3/2/2 1/1/1
f 3/2/6 12/4/5 1/1/4
f 13/6/8 5/5/7 1/1/4
f 5/5/10 9/7/9 1/1/1
f 6/1/11 3/2/2 8/3/3
f 6/1/14 12/4/13 3/2/12
f 6/1/14 5/5/16 13/6/15
f 6/1/11 9/7/9 5/5/10
f 7/9/19 2/8/18 8/3/17
f 9/7/22 2/8/21 7/9/20
f 8/3/25 2/8/24 10/9/23
f 10/9/28 2/8/27 9/7/26
f 1/1/1 7/9/29 8/3/3
f 8/3/25 10/9/23 6/1/14
f 9/7/9 7/9/29 1/1/1
f 6/1/14 10/9/28 9/7/26
f 12/4/32 4/11/31 11/10/30
f 11/10/35 4/11/34 13/6/33
f 14/10/37 4/11/36 12/4/13
f 13/6/15 4/11/39 14/10/38
f 12/4/5 11/10/40 1/1/4
f 6/1/14 14/10/37 12/4/13
f 1/1/4 11/10/40 13/6/8
f 13/6/15 14/10/38 6/1/14
g sb
s 1
f 17/14/43 16/13/42 15/12/41
f 19/16/45 18/15/44 15/12/41
f 20/12/48 16/13/47 17/14/46
f 20/12/48 18/15/50 19/16/49
f 23/19/53 22/18/52 21/17/51
f 21/17/51 22/18/52 24/20/54
f 25/17/57 22/18/56 23/19/55
f 24/20/58 22/18/56 25/17/57
f 28/23/61 27/22/60 26/21/59
f 29/21/64 27/22/63 28/23/62
f 18/15/67 30/24/66 15/12/65
f 31/25/69 17/14/68 15/12/65
f 20/12/72 30/24/71 18/15/70
f 20/12/72 17/14/74 31/25/73
f 34/28/77 33/27/76 32/26/75
f 32/26/75 33/27/76 35/29/78
f 36/26/81 33/27/80 34/28/79
f 35/29/82 33/27/80 36/26/81
f 39/32/85 38/31/84 37/30/83
f 40/30/88 38/31/87 39/32/86
f 29/21/91 42/34/90 41/33/89
f 43/35/92 29/21/64 41/33/89
f 41/33/95 42/34/94 26/21/93
f 44/35/96 41/33/95 26/21/59
f 43/35/92 41/33/89 45/36/97
f 46/37/98 43/35/92 45/36/97
f 45/36/99 41/33/95 44/35/96
f 47/37/100 45/36/99 44/35/96
f 46/37/98 45/36/97 23/19/53
f 21/17/51 46/37/98 23/19/53
f 23/19/55 45/36/99 47/37/100
f 25/17/57 23/19/55 47/37/100
f 49/39/103 48/38/102 37/30/101
f 50/40/104 49/39/103 37/30/83
f 51/41/105 49/39/103 50/40/104
f 52/42/106 51/41/105 50/40/104
f 53/42/108 51/41/107 34/28/77
f 32/26/75 53/42/108 34/28/77
f 34/28/79 51/41/105 52/42/106
f 36/26/81 34/28/79 52/42/106
f 49/39/110 54/40/109 40/30/88
f 40/30/88 48/38/111 49/39/110
f 51/41/107 53/42/108 54/40/109
f 54/40/109 49/39/110 51/41/107
f 55/43/112 38/31/87 40/30/88
f 40/30/88 54/40/109 55/43/112
f 56/44/113 55/43/112 54/40/109
f 54/40/109 53/42/108 56/44/113
f 53/42/108 32/26/75 35/29/78
f 35/29/78 56/44/113 53/42/108
f 57/45/114 27/22/63 29/21/64
f 29/21/64 43/35/92 57/45/114
f 58/46/115 57/45/114 43/35/92
f 43/35/92 46/37/98 58/46/115
f 24/20/54 58/46/115 46/37/98
f 46/37/98 21/17/51 24/20/54
f 37/30/83 38/31/84 55/43/116
f 55/43/116 50/40/104 37/30/83
f 56/44/117 52/42/106 50/40/104
f 50/40/104 55/43/116 56/44/117
f 35/29/82 36/26/81 52/42/106
f 52/42/106 56/44/117 35/29/82
f 57/45/118 44/35/96 26/21/59
f 26/21/59 27/22/60 57/45/118
f 44/35/96 57/45/118 58/46/119
f 58/46/119 47/37/100 44/35/96
f 24/20/58 25/17/57 47/37/100
f 47/37/100 58/46/119 24/20/58
f 40/30/88 39/32/86 31/25/69
f 31/25/69 15/12/41 40/30/88
f 30/24/66 48/38/111 40/30/88
f 40/30/88 15/12/41 30/24/66
f 16/13/42 42/34/90 29/21/64
f 29/21/64 15/12/41 16/13/42
f 19/16/45 15/12/41 29/21/64
f 29/21/64 28/23/62 19/16/45
f 19/16/49 28/23/61 26/21/59
f 26/21/59 20/12/48 19/16/49
f 16/13/47 20/12/72 26/21/93
f 26/21/93 42/34/94 16/13/47
f 31/25/73 39/32/85 37/30/83
f 37/30/83 20/12/48 31/25/73
f 30/24/71 20/12/48 37/30/101
f 37/30/101 48/38/102 30/24/71
# 108 elements

